<mxfile host="65bd71144e">
    <diagram id="6Jn8YRYJU19RoWJHTPrF" name="Page-1">
        <mxGraphModel dx="1103" dy="790" grid="1" gridSize="10" guides="1" tooltips="1" connect="1" arrows="1" fold="1" page="1" pageScale="1" pageWidth="850" pageHeight="1100" math="0" shadow="0">
            <root>
                <mxCell id="0"/>
                <mxCell id="1" parent="0"/>
                <mxCell id="3" value="&lt;span style=&quot;font-size: 16px&quot;&gt;ULIC&lt;/span&gt;" style="rounded=1;whiteSpace=wrap;html=1;fillColor=#fa6800;fontColor=#000000;strokeColor=#C73500;" vertex="1" parent="1">
                    <mxGeometry x="320" y="360" width="160" height="80" as="geometry"/>
                </mxCell>
                <mxCell id="4" value="GetPathsCommand" style="text;html=1;strokeColor=#36393d;fillColor=#eeeeee;align=center;verticalAlign=middle;whiteSpace=wrap;rounded=0;fontSize=15;fontColor=#080808;" vertex="1" parent="1">
                    <mxGeometry x="320" y="200" width="160" height="40" as="geometry"/>
                </mxCell>
                <mxCell id="7" value="GetBridgesInVoivodeshipByIdCommand" style="text;html=1;strokeColor=#36393d;fillColor=#eeeeee;align=center;verticalAlign=middle;whiteSpace=wrap;rounded=0;fontSize=15;fontColor=#080808;" vertex="1" parent="1">
                    <mxGeometry x="40" y="480" width="290" height="40" as="geometry"/>
                </mxCell>
                <mxCell id="8" value="GetStreetsInCityByIdCommand" style="text;html=1;strokeColor=#36393d;fillColor=#eeeeee;align=center;verticalAlign=middle;whiteSpace=wrap;rounded=0;fontSize=15;fontColor=#080808;" vertex="1" parent="1">
                    <mxGeometry x="310" y="560" width="260" height="40" as="geometry"/>
                </mxCell>
                <mxCell id="9" value="GetParksInVoivodeshipByIdCommand" style="text;html=1;strokeColor=#36393d;fillColor=#eeeeee;align=center;verticalAlign=middle;whiteSpace=wrap;rounded=0;fontSize=15;fontColor=#080808;" vertex="1" parent="1">
                    <mxGeometry x="470" y="280" width="350" height="40" as="geometry"/>
                </mxCell>
                <mxCell id="11" value="GetMarketSquaresInCountyByIdCommand" style="text;html=1;strokeColor=#36393d;fillColor=#eeeeee;align=center;verticalAlign=middle;whiteSpace=wrap;rounded=0;fontSize=15;fontColor=#080808;" vertex="1" parent="1">
                    <mxGeometry x="10" y="290" width="300" height="40" as="geometry"/>
                </mxCell>
                <mxCell id="12" value="" style="endArrow=classic;html=1;fontSize=16;fontColor=#080808;entryX=0.5;entryY=1;entryDx=0;entryDy=0;exitX=0.5;exitY=0;exitDx=0;exitDy=0;" edge="1" parent="1" source="3" target="4">
                    <mxGeometry width="50" height="50" relative="1" as="geometry">
                        <mxPoint x="360" y="340" as="sourcePoint"/>
                        <mxPoint x="410" y="290" as="targetPoint"/>
                    </mxGeometry>
                </mxCell>
                <mxCell id="13" value="" style="endArrow=classic;html=1;fontSize=16;fontColor=#080808;entryX=0.25;entryY=1;entryDx=0;entryDy=0;exitX=1;exitY=0;exitDx=0;exitDy=0;" edge="1" parent="1" source="3" target="9">
                    <mxGeometry width="50" height="50" relative="1" as="geometry">
                        <mxPoint x="510" y="450" as="sourcePoint"/>
                        <mxPoint x="510" y="290" as="targetPoint"/>
                    </mxGeometry>
                </mxCell>
                <mxCell id="15" value="" style="endArrow=classic;html=1;fontSize=16;fontColor=#080808;entryX=0.75;entryY=1;entryDx=0;entryDy=0;exitX=0;exitY=0;exitDx=0;exitDy=0;" edge="1" parent="1" source="3" target="11">
                    <mxGeometry width="50" height="50" relative="1" as="geometry">
                        <mxPoint x="300" y="440" as="sourcePoint"/>
                        <mxPoint x="300" y="280" as="targetPoint"/>
                    </mxGeometry>
                </mxCell>
                <mxCell id="18" value="" style="endArrow=classic;html=1;fontSize=16;fontColor=#080808;entryX=1;entryY=0;entryDx=0;entryDy=0;exitX=0.25;exitY=1;exitDx=0;exitDy=0;" edge="1" parent="1" source="3" target="7">
                    <mxGeometry width="50" height="50" relative="1" as="geometry">
                        <mxPoint x="440" y="400" as="sourcePoint"/>
                        <mxPoint x="440" y="240" as="targetPoint"/>
                    </mxGeometry>
                </mxCell>
                <mxCell id="19" value="" style="endArrow=classic;html=1;fontSize=16;fontColor=#080808;entryX=0.477;entryY=-0.1;entryDx=0;entryDy=0;exitX=0.5;exitY=1;exitDx=0;exitDy=0;entryPerimeter=0;" edge="1" parent="1" source="3" target="8">
                    <mxGeometry width="50" height="50" relative="1" as="geometry">
                        <mxPoint x="450" y="410" as="sourcePoint"/>
                        <mxPoint x="450" y="250" as="targetPoint"/>
                    </mxGeometry>
                </mxCell>
                <mxCell id="21" value="" style="endArrow=classic;html=1;fontSize=16;fontColor=#080808;exitX=1;exitY=0.5;exitDx=0;exitDy=0;entryX=0;entryY=0;entryDx=0;entryDy=0;" edge="1" parent="1" source="3" target="22">
                    <mxGeometry width="50" height="50" relative="1" as="geometry">
                        <mxPoint x="530" y="430" as="sourcePoint"/>
                        <mxPoint x="570" y="440" as="targetPoint"/>
                    </mxGeometry>
                </mxCell>
                <mxCell id="22" value="GetStreetsInCountyByIdCommand" style="text;html=1;strokeColor=#36393d;fillColor=#eeeeee;align=center;verticalAlign=middle;whiteSpace=wrap;rounded=0;fontSize=15;fontColor=#080808;" vertex="1" parent="1">
                    <mxGeometry x="540" y="480" width="260" height="40" as="geometry"/>
                </mxCell>
            </root>
        </mxGraphModel>
    </diagram>
</mxfile>